# xmcd
#
# Track frame offsets:
#	150
#	15935
#	37613
#	56146
#	77871
#	94069
#	115492
#
# Disc length: 1920 seconds
#
# Revision: 1
# Processed by: cddbd v1.5.1PL0 Copyright (c) Steve Scherf et al.
# Submitted via: CDex 1.50Beta5
#
DISCID=4a077e07
DTITLE=風味堂 - 花とりどり
DYEAR=1900
DGENRE=Pop
TTITLE0=Swinging Road
TTITLE1=Rainy Day
TTITLE2=罪深きヒガイ者
TTITLE3=ラブ・ソング
TTITLE4=花とりどり
TTITLE5=ママのピアノ
TTITLE6=Have A Goodnight Sleep...
EXTD=
EXTT0=
EXTT1=
EXTT2=
EXTT3=
EXTT4=
EXTT5=
EXTT6=
PLAYORDER=
